<svg class="venn vennop" version="1.1" viewBox="-55 -60 110 110" xmlns="http://www.w3.org/2000/svg">
  <!-- A -->
  <clipPath id="clip_a_exercise_arbitrary">
    <circle cx="-17.3205" cy="10" r="30"/>
  </clipPath>

  <!-- B -->
  <clipPath id="clip_b_exercise_arbitrary">
    <circle cx="0" cy="-20" r="30"/>
  </clipPath>

  <!-- C -->
  <clipPath id="clip_c_exercise_arbitrary">
    <circle cx="17.3205" cy="10" r="30"/>
  </clipPath>

  <!-- A intersect B -->
  <clipPath id="clip_aib_exercise_arbitrary" clip-path="url('#clip_a_exercise_arbitrary')">
    <circle cx="0" cy="-20" r="30"/>
  </clipPath>

  <!-- A intersect C -->
  <clipPath id="clip_aic_exercise_arbitrary" clip-path="url('#clip_a_exercise_arbitrary')">
    <circle cx="17.3205" cy="10" r="30"/>
  </clipPath>

  <!-- B intersect C -->
  <clipPath id="clip_bic_exercise_arbitrary" clip-path="url('#clip_c_exercise_arbitrary')">
    <circle cx="0" cy="-20" r="30"/>
  </clipPath>

  <!-- A intersect B intersect C -->
  <clipPath id="clip_aibic_exercise_arbitrary" clip-path="url('#clip_aib_exercise_arbitrary')">
    <circle cx="17.3205" cy="10" r="30"/>
  </clipPath>

  <!-- a intersect B intersect C -->
  <mask id="mask_aibic_exercise_arbitrary" >
    <rect x="-55" y="-60" width="110" height="110" style="fill: white;"/>
    <rect clip-path="url('#clip_aibic_exercise_arbitrary')" x="-55" y="-60" width="110" height="110" style="fill: black;"/>
  </mask>

  <!-- A union B -->
  <mask id="mask_aub_exercise_arbitrary">
    <rect x="-55" y="-60" width="110" height="110" style="fill: white;"/>
    <circle cx="-17.3205" cy="10" r="30" style="fill: black;"/>
    <circle cx="0" cy="-20" r="30" style="fill: black;"/>
  </mask>

  <!-- A union C -->
  <mask id="mask_auc_exercise_arbitrary">
    <rect x="-55" y="-60" width="110" height="110" style="fill: white;"/>
    <circle cx="-17.3205" cy="10" r="30" style="fill: black;"/>
    <circle cx="17.3205" cy="10" r="30" style="fill: black;"/>
  </mask>

  <!-- B union C -->
  <mask id="mask_buc_exercise_arbitrary">
    <rect x="-55" y="-60" width="110" height="110" style="fill: white;"/>
    <circle cx="0" cy="-20" r="30" style="fill: black;"/>
    <circle cx="17.3205" cy="10" r="30" style="fill: black;"/>
  </mask>

  <!-- just A -->
  <circle id="arbitrary_venn6" clip-path="url('#clip_a_exercise_arbitrary')" mask="url(#mask_buc_exercise_arbitrary)" cx="0" cy="0" r="53"/>
  <!-- just B -->
  <circle id="arbitrary_venn2" clip-path="url('#clip_b_exercise_arbitrary')" mask="url(#mask_auc_exercise_arbitrary)" cx="0" cy="0" r="53"/>
  <!-- just C -->
  <circle id="arbitrary_venn0" clip-path="url('#clip_c_exercise_arbitrary')" mask="url(#mask_aub_exercise_arbitrary)" cx="0" cy="0" r="53"/>
  <!-- A intersect B without C -->
  <circle id="arbitrary_venn5" clip-path="url('#clip_aib_exercise_arbitrary')" mask="url(#mask_aibic_exercise_arbitrary)" cx="0" cy="0" r="53"/>
  <!-- A intersect C without B -->
  <circle id="arbitrary_venn4" clip-path="url('#clip_aic_exercise_arbitrary')" mask="url(#mask_aibic_exercise_arbitrary)" cx="0" cy="0" r="53"/>
  <!-- B intersect C without A -->
  <circle id="arbitrary_venn1" clip-path="url('#clip_bic_exercise_arbitrary')" mask="url(#mask_aibic_exercise_arbitrary)" cx="0" cy="0" r="53"/>
  <!-- A intersect B intersect C -->
  <circle id="arbitrary_venn3" clip-path="url('#clip_aibic_exercise_arbitrary')" cx="0" cy="0" r="53"/>


  <circle cx="-17.3205" cy="10" r="30"/>
  <text x="-25.9807" y="15">A</text>

  <circle cx="0" cy="-20" r="30"/>
  <text x="0" y="-30">B</text>

  <circle cx="17.3205" cy="10" r="30"/>
  <text x="25.9807" y="15">C</text>
</svg>
